<?xml version="1.0" encoding="UTF-8" standalone="no"?>
<svg
   version="1.1"
   width="90mm"
   height="90mm"
   viewBox="0 0 340.15748 340.15747"
   id="svg70"
   sodipodi:docname="icon.svg"
   inkscape:version="1.1.2 (0a00cf5339, 2022-02-04)"
   xmlns:inkscape="http://www.inkscape.org/namespaces/inkscape"
   xmlns:sodipodi="http://sodipodi.sourceforge.net/DTD/sodipodi-0.dtd"
   xmlns="http://www.w3.org/2000/svg"
   xmlns:svg="http://www.w3.org/2000/svg">
  <defs
     id="defs74" />
  <sodipodi:namedview
     id="namedview72"
     pagecolor="#ffffff"
     bordercolor="#666666"
     borderopacity="1.0"
     inkscape:pageshadow="2"
     inkscape:pageopacity="0.0"
     inkscape:pagecheckerboard="0"
     showgrid="false"
     units="mm"
     height="100mm"
     inkscape:zoom="0.76386933"
     inkscape:cx="578.633"
     inkscape:cy="147.2765"
     inkscape:window-width="1920"
     inkscape:window-height="1011"
     inkscape:window-x="0"
     inkscape:window-y="0"
     inkscape:window-maximized="1"
     inkscape:current-layer="svg70"
     inkscape:document-units="mm" />
  <g
     transform="matrix(1.6912136,0,0,1.6395957,-671.88685,3.9698252)"
     id="g68">
    <svg
       viewBox="0 0 396 146"
       data-background-color="#ffffff"
       preserveAspectRatio="xMidYMid meet"
       height="368"
       width="1000"
       version="1.1"
       id="svg66">
      <g
         id="tight-bounds"
         transform="translate(0.2399994,0.04091559)">
        <svg
           viewBox="0 0 395.52 145.91817"
           height="145.91817"
           width="395.51999"
           version="1.1"
           id="svg61">
          <g
             id="g57">
            <svg
               viewBox="0 0 395.52 145.91817"
               height="145.91817"
               width="395.51999"
               version="1.1"
               id="svg55">
              <g
                 transform="translate(0,87.896351)"
                 id="g30">
                <svg
                   viewBox="0 0 395.52 58.021818"
                   height="58.021816"
                   width="395.51999"
                   version="1.1"
                   id="svg28">
                  <g
                     id="textblocktransform">
                    <svg
                       viewBox="0 0 395.52 58.021818"
                       height="58.021816"
                       width="395.51999"
                       id="textblock"
                       version="1.1">
                      <g
                         id="g15">
                        <svg
                           viewBox="0 0 395.52 32.659818"
                           height="32.659817"
                           width="395.51999"
                           version="1.1"
                           id="svg13">
                          <g
                             id="g11">
                            <svg
                               width="395.51999"
                               viewBox="1 -33.5 402.03 34"
                               height="32.659817"
                               data-palette-color="#512da8"
                               version="1.1"
                               id="svg9">
                              <g
                                 class="wordmark-text-0"
                                 data-fill-palette-color="primary"
                                 id="text-0">
                                <path
                                   d="M 6.5,0 H 1 l 12.45,-33 h 6.4 L 32.3,0 h -5.65 l -8.5,-23.6 -1.5,-4.75 H 16.5 l -1.4,4.65 z m 19,-8.65 H 7.65 V -13 H 25.5 Z M 38.15,-33 H 49.8 c 5.166667,0 9.19,1.423333 12.07,4.27 2.886667,2.853333 4.33,6.93 4.33,12.23 v 0 c 0,5.3 -1.443333,9.3733333 -4.33,12.22 C 58.99,-1.4266667 54.966667,0 49.8,0 V 0 H 38.15 Z m 5.35,28.45 h 6.3 c 3.5,0 6.173333,-1.0433333 8.02,-3.13 1.853333,-2.08 2.78,-5.02 2.78,-8.82 v 0 c 0,-3.8 -0.926667,-6.743333 -2.78,-8.83 -1.846667,-2.08 -4.52,-3.12 -8.02,-3.12 v 0 H 43.5 Z M 100.09,-33 h 7.81 V 0 h -4.95 v -19.1 l 0.39,-9.1 H 103.3 L 93.25,0 H 88.8 L 78.75,-28.2 H 78.7 l 0.39,9.1 V 0 h -4.94 v -33 h 7.94 l 6.66,19.1 2.3,7.85 h 0.1 l 2.35,-7.85 z m 17.6,0 h 5.35 V 0 h -5.35 z m 37.25,0 h 4.95 V 0 h -6.35 l -12.75,-20.8 -3.2,-5.85 h -0.05 l 0.2,5.35 c 2.60817,51.899428 -19.54644,-45.923516 14.1,9.05 l 3.25,5.95 h 0.05 l -0.2,-5.4 z"
                                   fill="#512da8"
                                   data-fill-palette-color="primary"
                                   id="path2"
                                   sodipodi:nodetypes="cccccccccccccccccscsscsccccscsscscccccccccccccccccccccccccccccccccccccccccc" />
                                <path
                                   d="m 194.74,-33.5 v 0 q 4.8,0 8.3,2.05 3.5,2.05 5.4,5.85 1.9,3.8 1.9,9.1 v 0 q 0,5.3 -1.9,9.1 -1.9,3.8 -5.4,5.85 -3.5,2.05 -8.3,2.05 v 0 q -4.75,0 -8.25,-2.05 -3.5,-2.05 -5.4,-5.85 -1.9,-3.8 -1.9,-9.1 v 0 q 0,-5.3 1.9,-9.1 1.9,-3.8 5.4,-5.85 3.5,-2.05 8.25,-2.05 z m 0,4.65 v 0 q -3.1,0 -5.33,1.45 -2.22,1.45 -3.42,4.2 -1.2,2.75 -1.2,6.7 v 0 q 0,3.9 1.2,6.67 1.2,2.78 3.42,4.23 2.23,1.45 5.33,1.45 v 0 q 3.15,0 5.37,-1.45 2.23,-1.45 3.43,-4.23 1.2,-2.77 1.2,-6.67 v 0 q 0,-3.95 -1.2,-6.7 -1.2,-2.75 -3.43,-4.2 -2.22,-1.45 -5.37,-1.45 z M 240.39,-33 h 4.95 V 0 h -6.36 l -12.75,-20.8 -3.19,-5.85 h -0.05 l 0.2,5.35 V 0 h -4.9 v -33 h 6.3 l 12.7,20.75 3.25,5.95 h 0.05 l -0.2,-5.4 z"
                                   fill="#512da8"
                                   data-fill-palette-color="primary"
                                   id="path4" />
                                <path
                                   d="m 266.49,-33 h 13.45 q 5.3,0 8.42,2.65 3.13,2.65 3.13,7.15 v 0 q 0,4.65 -3.13,7.17 -3.12,2.53 -8.42,2.53 v 0 l -0.5,0.3 h -7.65 V 0 h -5.3 z m 5.3,15.35 h 7.75 q 3.25,0 4.82,-1.33 1.58,-1.32 1.58,-4.07 v 0 q 0,-2.7 -1.58,-4.05 -1.57,-1.35 -4.82,-1.35 v 0 h -7.75 z m 6.3,3.2 4.6,-2.1 L 293.44,0 h -6.15 z M 301.68,0 h -5.5 l 12.46,-33 h 6.39 l 12.46,33 h -5.65 l -8.5,-23.6 -1.5,-4.75 h -0.16 l -1.4,4.65 z m 19,-8.65 H 302.83 V -13 h 17.85 z M 333.33,-33 h 5.35 V 0 h -5.35 z m 20.5,0 v 28.4 h 18.2 V 0 h -23.55 v -33 z m 35.85,-0.5 v 0 q 4.45,0 7.7,1.67 3.25,1.68 5.5,4.93 v 0 l -3.6,3.45 q -1.9,-2.9 -4.28,-4.18 -2.37,-1.27 -5.62,-1.27 v 0 q -2.4,0 -3.95,0.65 -1.55,0.65 -2.28,1.72 -0.72,1.08 -0.72,2.43 v 0 q 0,1.55 1.07,2.7 1.08,1.15 4.03,1.8 v 0 l 6.7,1.5 q 4.8,1.05 6.8,3.2 2,2.15 2,5.45 v 0 q 0,3.05 -1.65,5.3 -1.65,2.25 -4.58,3.45 -2.92,1.2 -6.87,1.2 v 0 q -3.5,0 -6.3,-0.9 -2.8,-0.9 -4.9,-2.45 -2.1,-1.55 -3.45,-3.55 v 0 l 3.7,-3.7 q 1.05,1.75 2.65,3.12 1.6,1.38 3.72,2.13 2.13,0.75 4.73,0.75 v 0 q 2.3,0 3.97,-0.55 1.68,-0.55 2.55,-1.63 0.88,-1.07 0.88,-2.57 v 0 q 0,-1.45 -0.98,-2.55 -0.97,-1.1 -3.62,-1.7 v 0 l -7.25,-1.65 q -3,-0.65 -4.95,-1.85 -1.95,-1.2 -2.9,-2.93 -0.95,-1.72 -0.95,-3.87 v 0 q 0,-2.8 1.52,-5.08 1.53,-2.27 4.43,-3.65 2.9,-1.37 6.9,-1.37 z"
                                   fill="#512da8"
                                   data-fill-palette-color="primary"
                                   id="path6" />
                              </g>
                            </svg>
                          </g>
                        </svg>
                      </g>
                      <g
                         transform="translate(75.54432,40.370017)"
                         id="g24">
                        <svg
                           viewBox="0 0 244.43136 17.651801"
                           height="17.6518"
                           width="244.43137"
                           version="1.1"
                           id="svg22">
                          <g
                             id="g20">
                            <svg
                               width="244.43137"
                               viewBox="0.25 -37.099998 517.15002 37.349998"
                               height="17.6518"
                               data-palette-color="#512da8"
                               version="1.1"
                               id="svg18">
                              <path
                                 d="m 134.75525,185.21561 -4.5,-9.85 h -20.3 l -4.45,9.85 h -2.75 l 16.1,-35 h 2.55 l 16.1,35 z m -23.8,-12 h 18.35 l -9.2,-20.2 z m 52.55,-25.1 h 2.5 v 37.1 h -2.45 v -6.15 c -1.03334,2.03333 -2.48334,3.6 -4.35,4.7 -1.86667,1.1 -3.98334,1.65 -6.35,1.65 v 0 c -2.43334,0 -4.63334,-0.56667 -6.6,-1.7 -1.96667,-1.13333 -3.51,-2.7 -4.63,-4.7 -1.11334,-2 -1.67,-4.28333 -1.67,-6.85 v 0 c 0,-2.56667 0.55666,-4.86 1.67,-6.88 1.12,-2.01333 2.66333,-3.58 4.63,-4.7 1.96666,-1.11333 4.16666,-1.67 6.6,-1.67 v 0 c 2.33333,0 4.42333,0.55 6.27,1.65 1.85333,1.1 3.31333,2.63333 4.38,4.6 v 0 z m -10.5,35.05 c 2,0 3.79,-0.46667 5.37,-1.4 1.58666,-0.93333 2.83666,-2.23333 3.75,-3.9 0.92,-1.66667 1.38,-3.56667 1.38,-5.7 v 0 c 0,-2.13333 -0.46,-4.03333 -1.38,-5.7 -0.91334,-1.66667 -2.16334,-2.96667 -3.75,-3.9 -1.58,-0.93333 -3.37,-1.4 -5.37,-1.4 v 0 c -2,0 -3.79334,0.46667 -5.38,1.4 -1.58,0.93333 -2.83,2.23333 -3.75,3.9 -0.91334,1.66667 -1.37,3.56667 -1.37,5.7 v 0 c 0,2.13333 0.45666,4.03333 1.37,5.7 0.92,1.66667 59.76021,278.96323 3.75,3.9 1.58666,0.93333 3.38,1.4 5.38,1.4 z m 56.05,-24.25 c 3.23333,0 5.77333,0.95 7.62,2.85 1.85333,1.9 2.78,4.63333 2.78,8.2 v 0 15.25 h -2.5 v -15.05 c 0,-2.93333 -0.71667,-5.16667 -2.15,-6.7 -1.43333,-1.53333 -3.43333,-2.3 -6,-2.3 v 0 c -2.93333,0 -5.26,0.91667 -6.98,2.75 -1.71334,1.83333 -2.57,4.3 -2.57,7.4 v 0 13.9 h -2.5 v -15.05 c 0,-2.93333 -0.72,-5.16667 -2.16,-6.7 -1.42667,-1.53333 -3.42667,-2.3 -6,-2.3 v 0 c -2.92667,0 -5.25,0.91667 -6.97,2.75 -1.71334,1.83333 -2.57,4.3 -2.57,7.4 v 0 13.9 h -2.5 v -26.1 h 2.4 v 5.6 c 0.86666,-1.83333 2.15666,-3.26 3.87,-4.28 1.72,-1.01333 3.76333,-1.52 6.13,-1.52 v 0 c 2.36666,0 4.37333,0.53333 6.02,1.6 1.65333,1.06667 2.83,2.63333 3.53,4.7 v 0 c 0.86666,-1.93333 2.22333,-3.46667 4.07,-4.6 1.84667,-1.13333 4.00667,-1.7 6.48,-1.7 z m 20.69,26.3 v -26.1 h 2.5 v 26.1 z m 1.25,-32.45 c -0.56667,0 -1.05,-0.19 -1.45,-0.57 -0.4,-0.38667 -0.6,-0.86333 -0.6,-1.43 v 0 c 0,-0.56667 0.2,-1.05 0.6,-1.45 0.4,-0.4 0.88333,-0.6 1.45,-0.6 v 0 c 0.56667,0 1.05,0.19 1.45,0.57 0.4,0.38667 0.6,0.86333 0.6,1.43 v 0 c 0,0.56667 -0.2,1.05 -0.6,1.45 -0.4,0.4 -0.88333,0.6 -1.45,0.6 z m 24.55,6.15 c 3.26667,0 5.85,0.95 7.75,2.85 1.9,1.9 2.85,4.63333 2.85,8.2 v 0 15.25 h -2.5 v -15.05 c 0,-2.93333 -0.74,-5.16667 -2.22,-6.7 -1.48667,-1.53333 -3.56333,-2.3 -6.23,-2.3 v 0 c -3.06667,0 -5.48333,0.91667 -7.25,2.75 -1.76667,1.83333 -2.65,4.3 -2.65,7.4 v 0 13.9 h -2.5 v -26.1 h 2.4 v 5.65 c 0.9,-1.83333 2.24333,-3.26667 4.03,-4.3 1.78,-1.03333 3.88667,-1.55 6.32,-1.55 z m 20.9,26.3 v -37.1 h 2.5 v 37.1 z m 24.6,-3.4 1.05,1.75 c -0.63333,0.6 -1.42667,1.05667 -2.38,1.37 -0.94667,0.32 -1.93667,0.48 -2.97,0.48 v 0 c -2.26667,0 -4.01667,-0.62667 -5.25,-1.88 -1.23333,-1.24667 -1.85,-2.98667 -1.85,-5.22 v 0 -17.05 h -4.8 v -2.15 h 4.8 v -5.7 h 2.5 v 5.7 h 8.3 v 2.15 h -8.3 v 16.8 c 0,1.7 0.40667,2.99 1.22,3.87 0.82,0.88667 2.03,1.33 3.63,1.33 v 0 c 1.63333,0 2.98333,-0.48333 4.05,-1.45 z m 29.14,-9.75 -0.05,0.7 h -22.45 c 0.0667,2.03333 0.58333,3.84 1.55,5.42 0.96667,1.58667 2.27667,2.81333 3.93,3.68 1.64667,0.86667 3.50333,1.3 5.57,1.3 v 0 c 1.7,0 3.27667,-0.31 4.73,-0.93 1.44667,-0.61333 2.65333,-1.52 3.62,-2.72 v 0 l 1.45,1.65 c -1.13333,1.36667 -2.55667,2.41667 -4.27,3.15 -1.72,0.73333 -3.58,1.1 -5.58,1.1 v 0 c -2.6,0 -4.91667,-0.56667 -6.95,-1.7 -2.03333,-1.13333 -3.62333,-2.7 -4.77,-4.7 -1.15333,-2 -1.73,-4.28333 -1.73,-6.85 v 0 c 0,-2.53333 0.54333,-4.81 1.63,-6.83 1.08,-2.01333 2.57,-3.58667 4.47,-4.72 1.9,-1.13333 4.03333,-1.7 6.4,-1.7 v 0 c 2.36667,0 4.49333,0.55667 6.38,1.67 1.88,1.12 3.36333,2.68 4.45,4.68 1.08,2 1.62,4.26667 1.62,6.8 z m -12.45,-10.95 c -1.83333,0 -3.48333,0.40667 -4.95,1.22 -1.46667,0.82 -2.64,1.97 -3.52,3.45 -0.88667,1.48667 -1.39667,3.16333 -1.53,5.03 v 0 h 20 c -0.1,-1.86667 -0.6,-3.53333 -1.5,-5 -0.9,-1.46667 -2.08333,-2.61667 -3.55,-3.45 -1.46667,-0.83333 -3.11667,-1.25 -4.95,-1.25 z m 41.15,4.35 c 3.86667,0.1 6.80667,1.04 8.82,2.82 2.02,1.78667 3.03,4.14667 3.03,7.08 v 0 c 0,1.96667 -0.46667,3.70667 -1.4,5.22 -0.93333,1.52 -2.32667,2.71333 -4.18,3.58 -1.84667,0.86667 -4.07,1.3 -6.67,1.3 v 0 c -2.53333,0 -4.91667,-0.42667 -7.15,-1.28 -2.23333,-0.84667 -3.96667,-1.98667 -5.2,-3.42 v 0 l 1.3,-1.95 c 1.13333,1.26667 2.67333,2.3 4.62,3.1 1.95333,0.8 4.09667,1.2 6.43,1.2 v 0 c 3.1,0 5.48333,-0.69 7.15,-2.07 1.66667,-1.38667 2.5,-3.28 2.5,-5.68 v 0 c 0,-2.43333 -0.85,-4.33333 -2.55,-5.7 -1.7,-1.36667 -4.25,-2.05 -7.65,-2.05 v 0 h -2.2 v -1.85 l 10.35,-13.25 h -18.65 v -2.3 h 21.95 v 1.8 z m 42.84,19.95 c -2.46667,0 -4.69,-0.56667 -6.67,-1.7 -1.98667,-1.13333 -3.54667,-2.71 -4.68,-4.73 -1.13333,-2.01333 -1.7,-4.28667 -1.7,-6.82 v 0 c 0,-2.53333 0.56667,-4.81 1.7,-6.83 1.13333,-2.01333 2.69333,-3.58667 4.68,-4.72 1.98,-1.13333 4.20333,-1.7 6.67,-1.7 v 0 c 2.46667,0 4.69333,0.56667 6.68,1.7 1.98,1.13333 3.53667,2.70667 4.67,4.72 1.13333,2.02 1.7,4.29667 1.7,6.83 v 0 c 0,2.53333 -0.56667,4.80667 -1.7,6.82 -1.13333,2.02 -2.69,3.59667 -4.67,4.73 -1.98667,1.13333 -4.21333,1.7 -6.68,1.7 z m 0,-2.25 c 2,0 3.79333,-0.46667 5.38,-1.4 1.58,-0.93333 2.83,-2.23333 3.75,-3.9 0.91333,-1.66667 1.37,-3.56667 1.37,-5.7 v 0 c 0,-2.13333 -0.45667,-4.03333 -1.37,-5.7 -0.92,-1.66667 -2.17,-2.96667 -3.75,-3.9 -1.58667,-0.93333 -3.38,-1.4 -5.38,-1.4 v 0 c -2,0 -3.79,0.46667 -5.37,1.4 -1.58667,0.93333 -2.83667,2.23333 -3.75,3.9 -0.92,1.66667 -1.38,3.56667 -1.38,5.7 v 0 c 0,2.13333 0.46,4.03333 1.38,5.7 0.91333,1.66667 2.16333,2.96667 3.75,3.9 1.58,0.93333 3.37,1.4 5.37,1.4 z m 33.55,-24.25 c 3.26667,0 5.85,0.95 7.75,2.85 1.9,1.9 2.85,4.63333 2.85,8.2 v 0 15.25 h -2.5 v -15.05 c 0,-2.93333 -0.74,-5.16667 -2.22,-6.7 -1.48667,-1.53333 -3.56333,-2.3 -6.23,-2.3 v 0 c -3.06667,0 -5.48333,0.91667 -7.25,2.75 -1.76667,1.83333 -2.65,4.3 -2.65,7.4 v 0 13.9 h -2.5 v -26.1 h 2.4 v 5.65 c 0.9,-1.83333 2.24333,-3.26667 4.03,-4.3 1.78,-1.03333 3.88667,-1.55 6.32,-1.55 z m 61.75,26.3 h -2.9 l -8.35,-11.7 c -1.23333,0.16667 -2.36667,0.25 -3.4,0.25 v 0 h -10 v 11.45 h -2.55 v -35 h 12.55 c 4.4,0 7.85,1.04 10.35,3.12 2.5,2.08667 3.75,4.98 3.75,8.68 v 0 c 0,2.76667 -0.71,5.09 -2.13,6.97 -1.41333,1.88667 -3.43667,3.21333 -6.07,3.98 v 0 z m -24.65,-13.7 h 10 c 3.73333,0 6.58333,-0.82667 8.55,-2.48 1.96667,-1.64667 2.95,-3.98667 2.95,-7.02 v 0 c 0,-3.03333 -0.98333,-5.37667 -2.95,-7.03 -1.96667,-1.64667 -4.81667,-2.47 -8.55,-2.47 v 0 h -10 z m 41.19,-12.6 c 3.23333,0 5.71667,0.82333 7.45,2.47 1.73333,1.65333 2.6,4.08 2.6,7.28 v 0 16.55 h -2.4 v -4.65 c -0.83333,1.53333 -2.05,2.72667 -3.65,3.58 -1.6,0.84667 -3.51667,1.27 -5.75,1.27 v 0 c -2.9,0 -5.19,-0.68333 -6.87,-2.05 -1.68667,-1.36667 -2.53,-3.16667 -2.53,-5.4 v 0 c 0,-2.16667 0.77667,-3.92667 2.33,-5.28 1.54667,-1.34667 4.02,-2.02 7.42,-2.02 v 0 h 8.95 v -2.1 c 0,-2.43333 -0.65667,-4.28333 -1.97,-5.55 -1.32,-1.26667 -3.24667,-1.9 -5.78,-1.9 v 0 c -1.73333,0 -3.39,0.3 -4.97,0.9 -1.58667,0.6 -2.93,1.4 -4.03,2.4 v 0 l -1.25,-1.8 c 1.3,-1.16667 2.86667,-2.07667 4.7,-2.73 1.83333,-0.64667 3.75,-0.97 5.75,-0.97 z m -1.4,24.45 c 2.16667,0 4.01,-0.5 5.53,-1.5 1.51333,-1 2.65333,-2.45 3.42,-4.35 v 0 -4.9 h -8.9 c -2.56667,0 -4.42333,0.46667 -5.57,1.4 -1.15333,0.93333 -1.73,2.21667 -1.73,3.85 v 0 c 0,1.7 0.63333,3.04 1.9,4.02 1.26667,0.98667 3.05,1.48 5.35,1.48 z m 21.75,1.85 v -26.1 h 2.5 v 26.1 z m 1.25,-32.45 c -0.56667,0 -1.05,-0.19 -1.45,-0.57 -0.4,-0.38667 -0.6,-0.86333 -0.6,-1.43 v 0 c 0,-0.56667 0.2,-1.05 0.6,-1.45 0.4,-0.4 0.88333,-0.6 1.45,-0.6 v 0 c 0.56667,0 1.05,0.19 1.45,0.57 0.4,0.38667 0.6,0.86333 0.6,1.43 v 0 c 0,0.56667 -0.2,1.05 -0.6,1.45 -0.4,0.4 -0.88333,0.6 -1.45,0.6 z m 11.8,32.45 v -37.1 h 2.5 v 37.1 z m 19.65,0.2 c -2.1,0 -4.1,-0.31667 -6,-0.95 -1.9,-0.63333 -3.38333,-1.43333 -4.45,-2.4 v 0 l 1.15,-2 c 1.06667,0.9 2.44,1.65 4.12,2.25 1.68667,0.6 3.44667,0.9 5.28,0.9 v 0 c 2.63333,0 4.57333,-0.43333 5.82,-1.3 1.25333,-0.86667 1.88,-2.06667 1.88,-3.6 v 0 c 0,-1.1 -0.34333,-1.96667 -1.03,-2.6 -0.68,-0.63333 -1.52,-1.1 -2.52,-1.4 -1,-0.3 -2.38333,-0.61667 -4.15,-0.95 v 0 c -2.06667,-0.36667 -3.73333,-0.76667 -5,-1.2 -1.26667,-0.43333 -2.35,-1.13333 -3.25,-2.1 -0.9,-0.96667 -1.35,-2.3 -1.35,-4 v 0 c 0,-2.06667 0.85667,-3.77667 2.57,-5.13 1.72,-1.34667 4.16333,-2.02 7.33,-2.02 v 0 c 1.66667,0 3.31667,0.23333 4.95,0.7 1.63333,0.46667 2.96667,1.08333 4,1.85 v 0 l -1.15,2 c -1.06667,-0.76667 -2.28333,-1.35 -3.65,-1.75 -1.36667,-0.4 -2.76667,-0.6 -4.2,-0.6 v 0 c -2.43333,0 -4.26667,0.45 -5.5,1.35 -1.23333,0.9 -1.85,2.08333 -1.85,3.55 v 0 c 0,1.16667 0.35,2.07333 1.05,2.72 0.7,0.65333 1.55667,1.13667 2.57,1.45 1.02,0.32 2.44667,0.66333 4.28,1.03 v 0 c 2.03333,0.36667 3.67333,0.75667 4.92,1.17 1.25333,0.42 2.31333,1.09667 3.18,2.03 0.86667,0.93333 1.3,2.21667 1.3,3.85 v 0 c 0,2.16667 -0.9,3.9 -2.7,5.2 -1.8,1.3 -4.33333,1.95 -7.6,1.95 z m 41.59,-20.9 c 2.3,0 4.34333,0.42333 6.13,1.27 1.78,0.85333 3.15333,2.07 4.12,3.65 0.96667,1.58667 1.45,3.41333 1.45,5.48 v 0 c 0,2.1 -0.5,3.95 -1.5,5.55 -1,1.6 -2.38333,2.83333 -4.15,3.7 -1.76667,0.86667 -3.76667,1.3 -6,1.3 v 0 c -4.53333,0 -8.00667,-1.54333 -10.42,-4.63 -2.42,-3.08 -3.63,-7.38667 -3.63,-12.92 v 0 c 0,-3.86667 0.64333,-7.14333 1.93,-9.83 1.28,-2.68 3.08667,-4.70333 5.42,-6.07 2.33333,-1.36667 5.06667,-2.05 8.2,-2.05 v 0 c 3.3,0 5.95,0.6 7.95,1.8 v 0 l -1.05,2.05 c -1.66667,-1.06667 -3.96667,-1.6 -6.9,-1.6 v 0 c -4.03333,0 -7.20667,1.30667 -9.52,3.92 -2.32,2.62 -3.48,6.41333 -3.48,11.38 v 0 c 0,1.53333 0.1,2.93333 0.3,4.2 v 0 c 0.7,-2.26667 2.06,-4.03333 4.08,-5.3 2.01333,-1.26667 4.37,-1.9 7.07,-1.9 z m -0.05,18.75 c 2.73333,0 4.95,-0.76 6.65,-2.28 1.7,-1.51333 2.55,-3.52 2.55,-6.02 v 0 c 0,-2.5 -0.85,-4.5 -2.55,-6 -1.7,-1.5 -4.01667,-2.25 -6.95,-2.25 v 0 c -1.86667,0 -3.54,0.36667 -5.02,1.1 -1.48667,0.73333 -2.63667,1.73333 -3.45,3 -0.82,1.26667 -1.23,2.68333 -1.23,4.25 v 0 c 0,1.4 0.39333,2.73333 1.18,4 0.78,1.26667 1.92,2.28333 3.42,3.05 1.5,0.76667 3.3,1.15 5.4,1.15 z"
                                 opacity="1"
                                 fill="#512da8"
                                 class="slogan-text-1"
                                 data-fill-palette-color="secondary"
                                 id="text-1"
                                 sodipodi:nodetypes="ccccccccccccccccccsssscssccsscsccsccssccssccssccsscscccsssscscccscsscscccccccsscsssscccccscssssscssssssscccscsssscccccccsccccccccsscscccccccccccscssccccccsscscccssscsscssscccsccsccsssccssccsscscccsscsssscccccccccsccssccssccssccssccssccssccssccsssscccscsssscccccccscccscccccscsscscccscsscscccscscccccsscsscsccscsscscccsscsccscsscscccccscssssscsssscccccssscccsscsscssssssscssssccssssssccsscssssssccsssssscsscssssccsscsssscsscsssssccsscss" />
                            </svg>
                          </g>
                        </svg>
                      </g>
                    </svg>
                  </g>
                </svg>
              </g>
              <g
                 transform="translate(166.73668)"
                 id="g51">
                <svg
                   viewBox="0 0 62.046647 80.186152"
                   height="80.18615"
                   width="62.046646"
                   version="1.1"
                   id="svg49">
                  <g
                     id="g47">
                    <svg
                       version="1.1"
                       x="0"
                       y="0"
                       viewBox="12.983 1 75.685997 97.813004"
                       enable-background="new 0 0 100 100"
                       xml:space="preserve"
                       height="80.18615"
                       width="62.046646"
                       class="icon-icon-0"
                       data-fill-palette-color="accent"
                       id="icon-0"><g
                         fill="#512da8"
                         data-fill-palette-color="accent"
                         id="g44"><polygon
                           fill-rule="evenodd"
                           clip-rule="evenodd"
                           points="53.15,37.872 53.096,27.989 64.549,1 53.622,18.977 12.983,10.59 30.001,98.813 24.129,39.764 "
                           fill="#512da8"
                           data-fill-palette-color="accent"
                           id="polygon32"
                           style="fill:#1a1a1a" /><polygon
                           fill-rule="evenodd"
                           clip-rule="evenodd"
                           points="36.197,41.768 37.767,62.23 30.001,98.813 42.058,58.914 59.389,54.548 64.549,1.007 55.809,40.723 "
                           fill="#512da8"
                           data-fill-palette-color="accent"
                           id="polygon34"
                           style="fill:#e6e6e6" /><polygon
                           fill-rule="evenodd"
                           clip-rule="evenodd"
                           points="62.8,67.182 63.349,56.729 47.37,60.484 47.338,72.281 30.001,98.813 51.681,71.197 "
                           fill="#512da8"
                           data-fill-palette-color="accent"
                           id="polygon36"
                           style="fill:#1a1a1a" /><polygon
                           fill-rule="evenodd"
                           clip-rule="evenodd"
                           points="65.711,62.394 80.552,57.663 82.061,45.131 66.162,47.226 "
                           fill="#512da8"
                           data-fill-palette-color="accent"
                           id="polygon38"
                           style="fill:#e6e6e6" /><polygon
                           fill-rule="evenodd"
                           clip-rule="evenodd"
                           points="72.07,44.502 83.058,43.085 84.639,32.807 76.56,32.434 64.549,1 72.979,31.967 "
                           fill="#512da8"
                           data-fill-palette-color="accent"
                           id="polygon40"
                           style="fill:#1a1a1a" /><polygon
                           fill-rule="evenodd"
                           clip-rule="evenodd"
                           points="87.413,31.294 88.669,21.788 79.125,19.094 64.549,1 79.032,23.437 78.61,30.437 "
                           fill="#512da8"
                           data-fill-palette-color="accent"
                           id="polygon42"
                           style="fill:#e6e6e6" /></g></svg>
                  </g>
                </svg>
              </g>
              <g
                 id="g53" />
            </svg>
          </g>
          <defs
             id="defs59" />
        </svg>
        <rect
           width="395.51999"
           height="145.91817"
           fill="none"
           stroke="none"
           visibility="hidden"
           id="rect63"
           x="0"
           y="0" />
      </g>
    </svg>
  </g>
</svg>
