<?xml version="1.0" encoding="UTF-8" standalone="no"?>
<svg
   version="1.1"
   width="1000"
   height="1000"
   viewBox="0 0 1000 1000"
   id="svg72"
   sodipodi:docname="logo-color.svg"
   inkscape:version="1.1.2 (0a00cf5339, 2022-02-04)"
   xmlns:inkscape="http://www.inkscape.org/namespaces/inkscape"
   xmlns:sodipodi="http://sodipodi.sourceforge.net/DTD/sodipodi-0.dtd"
   xmlns="http://www.w3.org/2000/svg"
   xmlns:svg="http://www.w3.org/2000/svg">
  <defs
     id="defs76" />
  <sodipodi:namedview
     id="namedview74"
     pagecolor="#ffffff"
     bordercolor="#666666"
     borderopacity="1.0"
     inkscape:pageshadow="2"
     inkscape:pageopacity="0.0"
     inkscape:pagecheckerboard="0"
     showgrid="false"
     inkscape:zoom="0.837"
     inkscape:cx="500"
     inkscape:cy="296.89367"
     inkscape:window-width="1920"
     inkscape:window-height="1011"
     inkscape:window-x="0"
     inkscape:window-y="0"
     inkscape:window-maximized="1"
     inkscape:current-layer="svg72" />
  <g
     transform="matrix(0.7,0,0,0.7,5.9038132,6.2037174)"
     id="g70">
    <svg
       viewBox="0 0 396 146"
       data-background-color="#ffffff"
       preserveAspectRatio="xMidYMid meet"
       height="368"
       width="1000"
       version="1.1"
       id="svg68">
      <g
         id="tight-bounds"
         transform="translate(0.2399994,0.04091559)">
        <svg
           viewBox="0 0 395.52 145.91817"
           height="145.91817"
           width="395.51999"
           version="1.1"
           id="svg63">
          <g
             id="g59">
            <svg
               viewBox="0 0 395.52 145.91817"
               height="145.91817"
               width="395.51999"
               version="1.1"
               id="svg57">
              <g
                 transform="translate(0,87.896351)"
                 id="g32">
                <svg
                   viewBox="0 0 395.52 58.021818"
                   height="58.021816"
                   width="395.51999"
                   version="1.1"
                   id="svg30">
                  <g
                     id="textblocktransform">
                    <svg
                       viewBox="0 0 395.52 58.021818"
                       height="58.021816"
                       width="395.51999"
                       id="textblock"
                       version="1.1">
                      <g
                         id="g17">
                        <svg
                           viewBox="0 0 395.52 32.659818"
                           height="32.659817"
                           width="395.51999"
                           version="1.1"
                           id="svg15">
                          <g
                             id="g13">
                            <svg
                               width="395.51999"
                               viewBox="1 -33.5 402.03 34"
                               height="32.659817"
                               data-palette-color="#512da8"
                               version="1.1"
                               id="svg11">
                              <g
                                 class="wordmark-text-0"
                                 data-fill-palette-color="primary"
                                 id="text-0">
                                <path
                                   d="M 6.5,0 H 1 l 12.45,-33 h 6.4 L 32.3,0 h -5.65 l -8.5,-23.6 -1.5,-4.75 H 16.5 l -1.4,4.65 z m 19,-8.65 H 7.65 V -13 H 25.5 Z M 38.15,-33 H 49.8 q 7.75,0 12.07,4.27 4.33,4.28 4.33,12.23 v 0 q 0,7.95 -4.33,12.22 Q 57.55,0 49.8,0 V 0 H 38.15 Z m 5.35,28.45 h 6.3 q 5.25,0 8.02,-3.13 2.78,-3.12 2.78,-8.82 v 0 q 0,-5.7 -2.78,-8.83 -2.77,-3.12 -8.02,-3.12 v 0 H 43.5 Z M 100.09,-33 h 7.81 V 0 h -4.95 v -19.1 l 0.39,-9.1 H 103.3 L 93.25,0 H 88.8 L 78.75,-28.2 H 78.7 l 0.39,9.1 V 0 h -4.94 v -33 h 7.94 l 6.66,19.1 2.3,7.85 h 0.1 l 2.35,-7.85 z m 17.6,0 h 5.35 V 0 h -5.35 z m 37.25,0 h 4.95 V 0 h -6.35 l -12.75,-20.8 -3.2,-5.85 h -0.05 l 0.2,5.35 V 0 h -4.9 v -33 h 6.3 l 12.7,20.75 3.25,5.95 h 0.05 l -0.2,-5.4 z"
                                   fill="#512da8"
                                   data-fill-palette-color="primary"
                                   id="path4" />
                                <path
                                   d="m 194.74,-33.5 v 0 q 4.8,0 8.3,2.05 3.5,2.05 5.4,5.85 1.9,3.8 1.9,9.1 v 0 q 0,5.3 -1.9,9.1 -1.9,3.8 -5.4,5.85 -3.5,2.05 -8.3,2.05 v 0 q -4.75,0 -8.25,-2.05 -3.5,-2.05 -5.4,-5.85 -1.9,-3.8 -1.9,-9.1 v 0 q 0,-5.3 1.9,-9.1 1.9,-3.8 5.4,-5.85 3.5,-2.05 8.25,-2.05 z m 0,4.65 v 0 q -3.1,0 -5.33,1.45 -2.22,1.45 -3.42,4.2 -1.2,2.75 -1.2,6.7 v 0 q 0,3.9 1.2,6.67 1.2,2.78 3.42,4.23 2.23,1.45 5.33,1.45 v 0 q 3.15,0 5.37,-1.45 2.23,-1.45 3.43,-4.23 1.2,-2.77 1.2,-6.67 v 0 q 0,-3.95 -1.2,-6.7 -1.2,-2.75 -3.43,-4.2 -2.22,-1.45 -5.37,-1.45 z M 240.39,-33 h 4.95 V 0 h -6.36 l -12.75,-20.8 -3.19,-5.85 h -0.05 l 0.2,5.35 V 0 h -4.9 v -33 h 6.3 l 12.7,20.75 3.25,5.95 h 0.05 l -0.2,-5.4 z"
                                   fill="#512da8"
                                   data-fill-palette-color="primary"
                                   id="path6" />
                                <path
                                   d="m 266.49,-33 h 13.45 q 5.3,0 8.42,2.65 3.13,2.65 3.13,7.15 v 0 q 0,4.65 -3.13,7.17 -3.12,2.53 -8.42,2.53 v 0 l -0.5,0.3 h -7.65 V 0 h -5.3 z m 5.3,15.35 h 7.75 q 3.25,0 4.82,-1.33 1.58,-1.32 1.58,-4.07 v 0 q 0,-2.7 -1.58,-4.05 -1.57,-1.35 -4.82,-1.35 v 0 h -7.75 z m 6.3,3.2 4.6,-2.1 L 293.44,0 h -6.15 z M 301.68,0 h -5.5 l 12.46,-33 h 6.39 l 12.46,33 h -5.65 l -8.5,-23.6 -1.5,-4.75 h -0.16 l -1.4,4.65 z m 19,-8.65 H 302.83 V -13 h 17.85 z M 333.33,-33 h 5.35 V 0 h -5.35 z m 20.5,0 v 28.4 h 18.2 V 0 h -23.55 v -33 z m 35.85,-0.5 v 0 q 4.45,0 7.7,1.67 3.25,1.68 5.5,4.93 v 0 l -3.6,3.45 q -1.9,-2.9 -4.28,-4.18 -2.37,-1.27 -5.62,-1.27 v 0 q -2.4,0 -3.95,0.65 -1.55,0.65 -2.28,1.72 -0.72,1.08 -0.72,2.43 v 0 q 0,1.55 1.07,2.7 1.08,1.15 4.03,1.8 v 0 l 6.7,1.5 q 4.8,1.05 6.8,3.2 2,2.15 2,5.45 v 0 q 0,3.05 -1.65,5.3 -1.65,2.25 -4.58,3.45 -2.92,1.2 -6.87,1.2 v 0 q -3.5,0 -6.3,-0.9 -2.8,-0.9 -4.9,-2.45 -2.1,-1.55 -3.45,-3.55 v 0 l 3.7,-3.7 q 1.05,1.75 2.65,3.12 1.6,1.38 3.72,2.13 2.13,0.75 4.73,0.75 v 0 q 2.3,0 3.97,-0.55 1.68,-0.55 2.55,-1.63 0.88,-1.07 0.88,-2.57 v 0 q 0,-1.45 -0.98,-2.55 -0.97,-1.1 -3.62,-1.7 v 0 l -7.25,-1.65 q -3,-0.65 -4.95,-1.85 -1.95,-1.2 -2.9,-2.93 -0.95,-1.72 -0.95,-3.87 v 0 q 0,-2.8 1.52,-5.08 1.53,-2.27 4.43,-3.65 2.9,-1.37 6.9,-1.37 z"
                                   fill="#512da8"
                                   data-fill-palette-color="primary"
                                   id="path8" />
                              </g>
                            </svg>
                          </g>
                        </svg>
                      </g>
                      <g
                         transform="translate(75.54432,40.370017)"
                         id="g26">
                        <svg
                           viewBox="0 0 244.43136 17.651801"
                           height="17.6518"
                           width="244.43137"
                           version="1.1"
                           id="svg24">
                          <g
                             id="g22">
                            <svg
                               width="244.43137"
                               viewBox="0.25 -37.099998 517.15002 37.349998"
                               height="17.6518"
                               data-palette-color="#512da8"
                               version="1.1"
                               id="svg20">
                              <path
                                 d="m 32.25,0 -4.5,-9.85 H 7.45 L 3,0 H 0.25 l 16.1,-35 H 18.9 L 35,0 Z M 8.45,-12 H 26.8 L 17.6,-32.2 Z M 61,-37.1 h 2.5 V 0 H 61.05 V -6.15 Q 59.5,-3.1 56.7,-1.45 53.9,0.2 50.35,0.2 v 0 q -3.65,0 -6.6,-1.7 -2.95,-1.7 -4.63,-4.7 -1.67,-3 -1.67,-6.85 v 0 q 0,-3.85 1.67,-6.88 1.68,-3.02 4.63,-4.7 2.95,-1.67 6.6,-1.67 v 0 q 3.5,0 6.27,1.65 2.78,1.65 4.38,4.6 v 0 z M 50.5,-2.05 q 3,0 5.37,-1.4 2.38,-1.4 3.75,-3.9 1.38,-2.5 1.38,-5.7 v 0 q 0,-3.2 -1.38,-5.7 -1.37,-2.5 -3.75,-3.9 -2.37,-1.4 -5.37,-1.4 v 0 q -3,0 -5.38,1.4 -2.37,1.4 -3.75,3.9 -1.37,2.5 -1.37,5.7 v 0 q 0,3.2 1.37,5.7 1.38,2.5 3.75,3.9 2.38,1.4 5.38,1.4 z m 56.05,-24.25 q 4.85,0 7.62,2.85 2.78,2.85 2.78,8.2 v 0 V 0 h -2.5 v -15.05 q 0,-4.4 -2.15,-6.7 -2.15,-2.3 -6,-2.3 v 0 q -4.4,0 -6.98,2.75 -2.57,2.75 -2.57,7.4 v 0 V 0 h -2.5 v -15.05 q 0,-4.4 -2.16,-6.7 -2.14,-2.3 -6,-2.3 v 0 q -4.39,0 -6.97,2.75 -2.57,2.75 -2.57,7.4 v 0 V 0 h -2.5 v -26.1 h 2.4 v 5.6 q 1.3,-2.75 3.87,-4.28 2.58,-1.52 6.13,-1.52 v 0 q 3.55,0 6.02,1.6 2.48,1.6 3.53,4.7 v 0 q 1.3,-2.9 4.07,-4.6 2.77,-1.7 6.48,-1.7 z M 127.24,0 v -26.1 h 2.5 V 0 Z m 1.25,-32.45 q -0.85,0 -1.45,-0.57 -0.6,-0.58 -0.6,-1.43 v 0 q 0,-0.85 0.6,-1.45 0.6,-0.6 1.45,-0.6 v 0 q 0.85,0 1.45,0.57 0.6,0.58 0.6,1.43 v 0 q 0,0.85 -0.6,1.45 -0.6,0.6 -1.45,0.6 z m 24.55,6.15 q 4.9,0 7.75,2.85 2.85,2.85 2.85,8.2 v 0 V 0 h -2.5 v -15.05 q 0,-4.4 -2.22,-6.7 -2.23,-2.3 -6.23,-2.3 v 0 q -4.6,0 -7.25,2.75 -2.65,2.75 -2.65,7.4 v 0 V 0 h -2.5 v -26.1 h 2.4 v 5.65 q 1.35,-2.75 4.03,-4.3 2.67,-1.55 6.32,-1.55 z M 173.94,0 v -37.1 h 2.5 V 0 Z m 24.6,-3.4 1.05,1.75 q -0.95,0.9 -2.38,1.37 -1.42,0.48 -2.97,0.48 v 0 q -3.4,0 -5.25,-1.88 -1.85,-1.87 -1.85,-5.22 v 0 -17.05 h -4.8 v -2.15 h 4.8 v -5.7 h 2.5 v 5.7 h 8.3 v 2.15 h -8.3 v 16.8 q 0,2.55 1.22,3.87 1.23,1.33 3.63,1.33 v 0 q 2.45,0 4.05,-1.45 z m 29.14,-9.75 -0.05,0.7 h -22.45 q 0.1,3.05 1.55,5.42 1.45,2.38 3.93,3.68 2.47,1.3 5.57,1.3 v 0 q 2.55,0 4.73,-0.93 2.17,-0.92 3.62,-2.72 v 0 l 1.45,1.65 q -1.7,2.05 -4.27,3.15 -2.58,1.1 -5.58,1.1 v 0 q -3.9,0 -6.95,-1.7 -3.05,-1.7 -4.77,-4.7 -1.73,-3 -1.73,-6.85 v 0 q 0,-3.8 1.63,-6.83 1.62,-3.02 4.47,-4.72 2.85,-1.7 6.4,-1.7 v 0 q 3.55,0 6.38,1.67 2.82,1.68 4.45,4.68 1.62,3 1.62,6.8 z M 215.23,-24.1 q -2.75,0 -4.95,1.22 -2.2,1.23 -3.52,3.45 -1.33,2.23 -1.53,5.03 v 0 h 20 q -0.15,-2.8 -1.5,-5 -1.35,-2.2 -3.55,-3.45 -2.2,-1.25 -4.95,-1.25 z m 41.15,4.35 q 5.8,0.15 8.82,2.82 3.03,2.68 3.03,7.08 v 0 q 0,2.95 -1.4,5.22 -1.4,2.28 -4.18,3.58 -2.77,1.3 -6.67,1.3 v 0 q -3.8,0 -7.15,-1.28 -3.35,-1.27 -5.2,-3.42 v 0 l 1.3,-1.95 q 1.7,1.9 4.62,3.1 2.93,1.2 6.43,1.2 v 0 q 4.65,0 7.15,-2.07 2.5,-2.08 2.5,-5.68 v 0 q 0,-3.65 -2.55,-5.7 -2.55,-2.05 -7.65,-2.05 v 0 h -2.2 v -1.85 L 263.58,-32.7 H 244.93 V -35 h 21.95 v 1.8 z M 299.22,0.2 q -3.7,0 -6.67,-1.7 -2.98,-1.7 -4.68,-4.73 -1.7,-3.02 -1.7,-6.82 v 0 q 0,-3.8 1.7,-6.83 1.7,-3.02 4.68,-4.72 2.97,-1.7 6.67,-1.7 v 0 q 3.7,0 6.68,1.7 2.97,1.7 4.67,4.72 1.7,3.03 1.7,6.83 v 0 q 0,3.8 -1.7,6.82 -1.7,3.03 -4.67,4.73 -2.98,1.7 -6.68,1.7 z m 0,-2.25 q 3,0 5.38,-1.4 2.37,-1.4 3.75,-3.9 1.37,-2.5 1.37,-5.7 v 0 q 0,-3.2 -1.37,-5.7 -1.38,-2.5 -3.75,-3.9 -2.38,-1.4 -5.38,-1.4 v 0 q -3,0 -5.37,1.4 -2.38,1.4 -3.75,3.9 -1.38,2.5 -1.38,5.7 v 0 q 0,3.2 1.38,5.7 1.37,2.5 3.75,3.9 2.37,1.4 5.37,1.4 z m 33.55,-24.25 q 4.9,0 7.75,2.85 2.85,2.85 2.85,8.2 v 0 V 0 h -2.5 v -15.05 q 0,-4.4 -2.22,-6.7 -2.23,-2.3 -6.23,-2.3 v 0 q -4.6,0 -7.25,2.75 -2.65,2.75 -2.65,7.4 v 0 V 0 h -2.5 v -26.1 h 2.4 v 5.65 q 1.35,-2.75 4.03,-4.3 2.67,-1.55 6.32,-1.55 z M 394.52,0 h -2.9 l -8.35,-11.7 q -1.85,0.25 -3.4,0.25 v 0 h -10 V 0 h -2.55 v -35 h 12.55 q 6.6,0 10.35,3.12 3.75,3.13 3.75,8.68 v 0 q 0,4.15 -2.13,6.97 -2.12,2.83 -6.07,3.98 v 0 z m -24.65,-13.7 h 10 q 5.6,0 8.55,-2.48 2.95,-2.47 2.95,-7.02 v 0 q 0,-4.55 -2.95,-7.03 -2.95,-2.47 -8.55,-2.47 v 0 h -10 z m 41.19,-12.6 q 4.85,0 7.45,2.47 2.6,2.48 2.6,7.28 v 0 V 0 h -2.4 v -4.65 q -1.25,2.3 -3.65,3.58 -2.4,1.27 -5.75,1.27 v 0 q -4.35,0 -6.87,-2.05 -2.53,-2.05 -2.53,-5.4 v 0 q 0,-3.25 2.33,-5.28 2.32,-2.02 7.42,-2.02 v 0 h 8.95 v -2.1 q 0,-3.65 -1.97,-5.55 -1.98,-1.9 -5.78,-1.9 v 0 q -2.6,0 -4.97,0.9 -2.38,0.9 -4.03,2.4 v 0 l -1.25,-1.8 q 1.95,-1.75 4.7,-2.73 2.75,-0.97 5.75,-0.97 z m -1.4,24.45 q 3.25,0 5.53,-1.5 2.27,-1.5 3.42,-4.35 v 0 -4.9 h -8.9 q -3.85,0 -5.57,1.4 -1.73,1.4 -1.73,3.85 v 0 q 0,2.55 1.9,4.02 1.9,1.48 5.35,1.48 z M 431.41,0 v -26.1 h 2.5 V 0 Z m 1.25,-32.45 q -0.85,0 -1.45,-0.57 -0.6,-0.58 -0.6,-1.43 v 0 q 0,-0.85 0.6,-1.45 0.6,-0.6 1.45,-0.6 v 0 q 0.85,0 1.45,0.57 0.6,0.58 0.6,1.43 v 0 q 0,0.85 -0.6,1.45 -0.6,0.6 -1.45,0.6 z M 444.46,0 v -37.1 h 2.5 V 0 Z m 19.65,0.2 q -3.15,0 -6,-0.95 -2.85,-0.95 -4.45,-2.4 v 0 l 1.15,-2 q 1.6,1.35 4.12,2.25 2.53,0.9 5.28,0.9 v 0 q 3.95,0 5.82,-1.3 1.88,-1.3 1.88,-3.6 v 0 q 0,-1.65 -1.03,-2.6 -1.02,-0.95 -2.52,-1.4 -1.5,-0.45 -4.15,-0.95 v 0 q -3.1,-0.55 -5,-1.2 -1.9,-0.65 -3.25,-2.1 -1.35,-1.45 -1.35,-4 v 0 q 0,-3.1 2.57,-5.13 2.58,-2.02 7.33,-2.02 v 0 q 2.5,0 4.95,0.7 2.45,0.7 4,1.85 v 0 l -1.15,2 q -1.6,-1.15 -3.65,-1.75 -2.05,-0.6 -4.2,-0.6 v 0 q -3.65,0 -5.5,1.35 -1.85,1.35 -1.85,3.55 v 0 q 0,1.75 1.05,2.72 1.05,0.98 2.57,1.45 1.53,0.48 4.28,1.03 v 0 q 3.05,0.55 4.92,1.17 1.88,0.63 3.18,2.03 1.3,1.4 1.3,3.85 v 0 q 0,3.25 -2.7,5.2 -2.7,1.95 -7.6,1.95 z m 41.59,-20.9 q 3.45,0 6.13,1.27 2.67,1.28 4.12,3.65 1.45,2.38 1.45,5.48 v 0 q 0,3.15 -1.5,5.55 -1.5,2.4 -4.15,3.7 -2.65,1.3 -6,1.3 v 0 q -6.8,0 -10.42,-4.63 Q 491.7,-9 491.7,-17.3 v 0 q 0,-5.8 1.93,-9.83 1.92,-4.02 5.42,-6.07 3.5,-2.05 8.2,-2.05 v 0 q 4.95,0 7.95,1.8 v 0 l -1.05,2.05 q -2.5,-1.6 -6.9,-1.6 v 0 q -6.05,0 -9.52,3.92 -3.48,3.93 -3.48,11.38 v 0 q 0,2.3 0.3,4.2 v 0 q 1.05,-3.4 4.08,-5.3 3.02,-1.9 7.07,-1.9 z m -0.05,18.75 q 4.1,0 6.65,-2.28 2.55,-2.27 2.55,-6.02 v 0 q 0,-3.75 -2.55,-6 -2.55,-2.25 -6.95,-2.25 v 0 q -2.8,0 -5.02,1.1 -2.23,1.1 -3.45,3 -1.23,1.9 -1.23,4.25 v 0 q 0,2.1 1.18,4 1.17,1.9 3.42,3.05 2.25,1.15 5.4,1.15 z"
                                 opacity="1"
                                 fill="#512da8"
                                 class="slogan-text-1"
                                 data-fill-palette-color="secondary"
                                 id="text-1" />
                            </svg>
                          </g>
                        </svg>
                      </g>
                    </svg>
                  </g>
                </svg>
              </g>
              <g
                 transform="translate(166.73668)"
                 id="g53">
                <svg
                   viewBox="0 0 62.046647 80.186152"
                   height="80.18615"
                   width="62.046646"
                   version="1.1"
                   id="svg51">
                  <g
                     id="g49">
                    <svg
                       version="1.1"
                       x="0"
                       y="0"
                       viewBox="12.983 1 75.685997 97.813004"
                       enable-background="new 0 0 100 100"
                       xml:space="preserve"
                       height="80.18615"
                       width="62.046646"
                       class="icon-icon-0"
                       data-fill-palette-color="accent"
                       id="icon-0"><g
                         fill="#512da8"
                         data-fill-palette-color="accent"
                         id="g46"><polygon
                           fill-rule="evenodd"
                           clip-rule="evenodd"
                           points="24.129,39.764 53.15,37.872 53.096,27.989 64.549,1 53.622,18.977 12.983,10.59 30.001,98.813 "
                           fill="#512da8"
                           data-fill-palette-color="accent"
                           id="polygon34" /><polygon
                           fill-rule="evenodd"
                           clip-rule="evenodd"
                           points="55.809,40.723 36.197,41.768 37.767,62.23 30.001,98.813 42.058,58.914 59.389,54.548 64.549,1.007 "
                           fill="#512da8"
                           data-fill-palette-color="accent"
                           id="polygon36" /><polygon
                           fill-rule="evenodd"
                           clip-rule="evenodd"
                           points="47.37,60.484 47.338,72.281 30.001,98.813 51.681,71.197 62.8,67.182 63.349,56.729 "
                           fill="#512da8"
                           data-fill-palette-color="accent"
                           id="polygon38" /><polygon
                           fill-rule="evenodd"
                           clip-rule="evenodd"
                           points="82.061,45.131 66.162,47.226 65.711,62.394 80.552,57.663 "
                           fill="#512da8"
                           data-fill-palette-color="accent"
                           id="polygon40" /><polygon
                           fill-rule="evenodd"
                           clip-rule="evenodd"
                           points="84.639,32.807 76.56,32.434 64.549,1 72.979,31.967 72.07,44.502 83.058,43.085 "
                           fill="#512da8"
                           data-fill-palette-color="accent"
                           id="polygon42" /><polygon
                           fill-rule="evenodd"
                           clip-rule="evenodd"
                           points="79.125,19.094 64.549,1 79.032,23.437 78.61,30.437 87.413,31.294 88.669,21.788 "
                           fill="#512da8"
                           data-fill-palette-color="accent"
                           id="polygon44" /></g></svg>
                  </g>
                </svg>
              </g>
              <g
                 id="g55" />
            </svg>
          </g>
          <defs
             id="defs61" />
        </svg>
        <rect
           width="395.51999"
           height="145.91817"
           fill="none"
           stroke="none"
           visibility="hidden"
           id="rect65"
           x="0"
           y="0" />
      </g>
    </svg>
  </g>
</svg>
