<?xml version="1.0" encoding="UTF-8" standalone="no"?>
<svg
   version="1.1"
   width="1000"
   height="368"
   viewBox="0 0 1000 368"
   id="svg70"
   sodipodi:docname="logo-black.svg"
   inkscape:version="1.1.2 (0a00cf5339, 2022-02-04)"
   xmlns:inkscape="http://www.inkscape.org/namespaces/inkscape"
   xmlns:sodipodi="http://sodipodi.sourceforge.net/DTD/sodipodi-0.dtd"
   xmlns="http://www.w3.org/2000/svg"
   xmlns:svg="http://www.w3.org/2000/svg">
  <defs
     id="defs74" />
  <sodipodi:namedview
     id="namedview72"
     pagecolor="#ffffff"
     bordercolor="#666666"
     borderopacity="1.0"
     inkscape:pageshadow="2"
     inkscape:pageopacity="0.0"
     inkscape:pagecheckerboard="0"
     showgrid="false"
     inkscape:zoom="0.70344144"
     inkscape:cx="650.37397"
     inkscape:cy="111.59422"
     inkscape:window-width="1920"
     inkscape:window-height="1011"
     inkscape:window-x="0"
     inkscape:window-y="0"
     inkscape:window-maximized="1"
     inkscape:current-layer="svg70" />
  <g
     transform="matrix(1,0,0,1,-0.6060590897266707,-0.10312970237762897)"
     id="g68">
    <svg
       viewBox="0 0 396 146"
       data-background-color="#ffffff"
       preserveAspectRatio="xMidYMid meet"
       height="368"
       width="1000"
       version="1.1"
       id="svg66">
      <g
         id="tight-bounds"
         transform="matrix(1,0,0,1,0.23999939953176863,0.04091558844329768)">
        <svg
           viewBox="0 0 395.52 145.9181688231134"
           height="145.9181688231134"
           width="395.52"
           version="1.1"
           id="svg61">
          <g
             id="g57">
            <svg
               viewBox="0 0 395.52 145.9181688231134"
               height="145.9181688231134"
               width="395.52"
               version="1.1"
               id="svg55">
              <g
                 transform="matrix(1,0,0,1,0,87.8963511639168)"
                 id="g30">
                <svg
                   viewBox="0 0 395.52 58.0218176591966"
                   height="58.0218176591966"
                   width="395.52"
                   version="1.1"
                   id="svg28">
                  <g
                     id="textblocktransform">
                    <svg
                       viewBox="0 0 395.52 58.0218176591966"
                       height="58.0218176591966"
                       width="395.52"
                       id="textblock"
                       version="1.1">
                      <g
                         id="g15">
                        <svg
                           viewBox="0 0 395.52 32.65981785063752"
                           height="32.65981785063752"
                           width="395.52"
                           version="1.1"
                           id="svg13">
                          <g
                             id="g11"
                             transform="matrix(1,0,0,1,0,0)">
                            <svg
                               width="395.52"
                               viewBox="1 -33.5 402.0299987792969 34"
                               height="32.65981785063752"
                               data-palette-color="#512da8"
                               version="1.1"
                               id="svg9">
                              <g
                                 class="wordmark-text-0"
                                 data-fill-palette-color="primary"
                                 id="text-0">
                                <path
                                   d="M6.5 0L1 0 13.45-33 19.85-33 32.3 0 26.65 0 18.15-23.6 16.65-28.35 16.5-28.35 15.1-23.7 6.5 0ZM25.5-8.65L7.65-8.65 7.65-13 25.5-13 25.5-8.65ZM38.15-33L49.8-33Q57.55-33 61.87-28.73 66.2-24.45 66.2-16.5L66.2-16.5Q66.2-8.55 61.87-4.28 57.55 0 49.8 0L49.8 0 38.15 0 38.15-33ZM43.5-4.55L49.8-4.55Q55.05-4.55 57.82-7.68 60.6-10.8 60.6-16.5L60.6-16.5Q60.6-22.2 57.82-25.33 55.05-28.45 49.8-28.45L49.8-28.45 43.5-28.45 43.5-4.55ZM100.09-33L107.9-33 107.9 0 102.95 0 102.95-19.1 103.34-28.2 103.3-28.2 93.25 0 88.8 0 78.75-28.2 78.7-28.2 79.09-19.1 79.09 0 74.15 0 74.15-33 82.09-33 88.75-13.9 91.05-6.05 91.15-6.05 93.5-13.9 100.09-33ZM117.69-33L123.04-33 123.04 0 117.69 0 117.69-33ZM154.94-33L159.89-33 159.89 0 153.54 0 140.79-20.8 137.59-26.65 137.54-26.65 137.74-21.3 137.74 0 132.84 0 132.84-33 139.14-33 151.84-12.25 155.09-6.3 155.14-6.3 154.94-11.7 154.94-33Z"
                                   fill="#512da8"
                                   data-fill-palette-color="primary"
                                   id="path2"
                                   style="fill:#1a1a1a" />
                                <path
                                   d="M194.74-33.5L194.74-33.5Q199.54-33.5 203.04-31.45 206.54-29.4 208.44-25.6 210.34-21.8 210.34-16.5L210.34-16.5Q210.34-11.2 208.44-7.4 206.54-3.6 203.04-1.55 199.54 0.5 194.74 0.5L194.74 0.5Q189.99 0.5 186.49-1.55 182.99-3.6 181.09-7.4 179.19-11.2 179.19-16.5L179.19-16.5Q179.19-21.8 181.09-25.6 182.99-29.4 186.49-31.45 189.99-33.5 194.74-33.5ZM194.74-28.85L194.74-28.85Q191.64-28.85 189.41-27.4 187.19-25.95 185.99-23.2 184.79-20.45 184.79-16.5L184.79-16.5Q184.79-12.6 185.99-9.83 187.19-7.05 189.41-5.6 191.64-4.15 194.74-4.15L194.74-4.15Q197.89-4.15 200.11-5.6 202.34-7.05 203.54-9.83 204.74-12.6 204.74-16.5L204.74-16.5Q204.74-20.45 203.54-23.2 202.34-25.95 200.11-27.4 197.89-28.85 194.74-28.85ZM240.39-33L245.34-33 245.34 0 238.98 0 226.23-20.8 223.04-26.65 222.99-26.65 223.19-21.3 223.19 0 218.29 0 218.29-33 224.59-33 237.29-12.25 240.54-6.3 240.59-6.3 240.39-11.7 240.39-33Z"
                                   fill="#512da8"
                                   data-fill-palette-color="primary"
                                   id="path4"
                                   style="fill:#1a1a1a" />
                                <path
                                   d="M266.49-33L279.94-33Q285.24-33 288.36-30.35 291.49-27.7 291.49-23.2L291.49-23.2Q291.49-18.55 288.36-16.03 285.24-13.5 279.94-13.5L279.94-13.5 279.44-13.2 271.79-13.2 271.79 0 266.49 0 266.49-33ZM271.79-17.65L279.54-17.65Q282.79-17.65 284.36-18.98 285.94-20.3 285.94-23.05L285.94-23.05Q285.94-25.75 284.36-27.1 282.79-28.45 279.54-28.45L279.54-28.45 271.79-28.45 271.79-17.65ZM278.09-14.45L282.69-16.55 293.44 0 287.29 0 278.09-14.45ZM301.68 0L296.18 0 308.64-33 315.03-33 327.49 0 321.84 0 313.34-23.6 311.84-28.35 311.68-28.35 310.28-23.7 301.68 0ZM320.68-8.65L302.83-8.65 302.83-13 320.68-13 320.68-8.65ZM333.33-33L338.68-33 338.68 0 333.33 0 333.33-33ZM353.83-33L353.83-4.6 372.03-4.6 372.03 0 348.48 0 348.48-33 353.83-33ZM389.68-33.5L389.68-33.5Q394.13-33.5 397.38-31.83 400.63-30.15 402.88-26.9L402.88-26.9 399.28-23.45Q397.38-26.35 395-27.63 392.63-28.9 389.38-28.9L389.38-28.9Q386.98-28.9 385.43-28.25 383.88-27.6 383.15-26.53 382.43-25.45 382.43-24.1L382.43-24.1Q382.43-22.55 383.5-21.4 384.58-20.25 387.53-19.6L387.53-19.6 394.23-18.1Q399.03-17.05 401.03-14.9 403.03-12.75 403.03-9.45L403.03-9.45Q403.03-6.4 401.38-4.15 399.73-1.9 396.8-0.7 393.88 0.5 389.93 0.5L389.93 0.5Q386.43 0.5 383.63-0.4 380.83-1.3 378.73-2.85 376.63-4.4 375.28-6.4L375.28-6.4 378.98-10.1Q380.03-8.35 381.63-6.98 383.23-5.6 385.35-4.85 387.48-4.1 390.08-4.1L390.08-4.1Q392.38-4.1 394.05-4.65 395.73-5.2 396.6-6.28 397.48-7.35 397.48-8.85L397.48-8.85Q397.48-10.3 396.5-11.4 395.53-12.5 392.88-13.1L392.88-13.1 385.63-14.75Q382.63-15.4 380.68-16.6 378.73-17.8 377.78-19.53 376.83-21.25 376.83-23.4L376.83-23.4Q376.83-26.2 378.35-28.48 379.88-30.75 382.78-32.13 385.68-33.5 389.68-33.5Z"
                                   fill="#512da8"
                                   data-fill-palette-color="primary"
                                   id="path6"
                                   style="fill:#1a1a1a" />
                              </g>
                            </svg>
                          </g>
                        </svg>
                      </g>
                      <g
                         transform="matrix(1,0,0,1,75.54432,40.370017009544625)"
                         id="g24">
                        <svg
                           viewBox="0 0 244.43135999999998 17.651800649651967"
                           height="17.651800649651967"
                           width="244.43135999999998"
                           version="1.1"
                           id="svg22">
                          <g
                             id="g20"
                             transform="matrix(1,0,0,1,0,0)">
                            <svg
                               width="244.43135999999998"
                               viewBox="0.25 -37.099998474121094 517.1500244140625 37.349998474121094"
                               height="17.651800649651967"
                               data-palette-color="#512da8"
                               version="1.1"
                               id="svg18">
                              <path
                                 d="M32.25 0L27.75-9.85 7.45-9.85 3 0 0.25 0 16.35-35 18.9-35 35 0 32.25 0ZM8.45-12L26.8-12 17.6-32.2 8.45-12ZM61-37.1L63.5-37.1 63.5 0 61.05 0 61.05-6.15Q59.5-3.1 56.7-1.45 53.9 0.2 50.35 0.2L50.35 0.2Q46.7 0.2 43.75-1.5 40.8-3.2 39.12-6.2 37.45-9.2 37.45-13.05L37.45-13.05Q37.45-16.9 39.12-19.93 40.8-22.95 43.75-24.63 46.7-26.3 50.35-26.3L50.35-26.3Q53.85-26.3 56.62-24.65 59.4-23 61-20.05L61-20.05 61-37.1ZM50.5-2.05Q53.5-2.05 55.87-3.45 58.25-4.85 59.62-7.35 61-9.85 61-13.05L61-13.05Q61-16.25 59.62-18.75 58.25-21.25 55.87-22.65 53.5-24.05 50.5-24.05L50.5-24.05Q47.5-24.05 45.12-22.65 42.75-21.25 41.37-18.75 40-16.25 40-13.05L40-13.05Q40-9.85 41.37-7.35 42.75-4.85 45.12-3.45 47.5-2.05 50.5-2.05L50.5-2.05ZM106.55-26.3Q111.4-26.3 114.17-23.45 116.95-20.6 116.95-15.25L116.95-15.25 116.95 0 114.45 0 114.45-15.05Q114.45-19.45 112.3-21.75 110.15-24.05 106.3-24.05L106.3-24.05Q101.9-24.05 99.32-21.3 96.75-18.55 96.75-13.9L96.75-13.9 96.75 0 94.25 0 94.25-15.05Q94.25-19.45 92.09-21.75 89.95-24.05 86.09-24.05L86.09-24.05Q81.7-24.05 79.12-21.3 76.55-18.55 76.55-13.9L76.55-13.9 76.55 0 74.05 0 74.05-26.1 76.45-26.1 76.45-20.5Q77.75-23.25 80.32-24.78 82.9-26.3 86.45-26.3L86.45-26.3Q90-26.3 92.47-24.7 94.95-23.1 96-20L96-20Q97.3-22.9 100.07-24.6 102.84-26.3 106.55-26.3L106.55-26.3ZM127.24 0L127.24-26.1 129.74-26.1 129.74 0 127.24 0ZM128.49-32.45Q127.64-32.45 127.04-33.02 126.44-33.6 126.44-34.45L126.44-34.45Q126.44-35.3 127.04-35.9 127.64-36.5 128.49-36.5L128.49-36.5Q129.34-36.5 129.94-35.93 130.54-35.35 130.54-34.5L130.54-34.5Q130.54-33.65 129.94-33.05 129.34-32.45 128.49-32.45L128.49-32.45ZM153.04-26.3Q157.94-26.3 160.79-23.45 163.64-20.6 163.64-15.25L163.64-15.25 163.64 0 161.14 0 161.14-15.05Q161.14-19.45 158.92-21.75 156.69-24.05 152.69-24.05L152.69-24.05Q148.09-24.05 145.44-21.3 142.79-18.55 142.79-13.9L142.79-13.9 142.79 0 140.29 0 140.29-26.1 142.69-26.1 142.69-20.45Q144.04-23.2 146.72-24.75 149.39-26.3 153.04-26.3L153.04-26.3ZM173.94 0L173.94-37.1 176.44-37.1 176.44 0 173.94 0ZM198.54-3.4L199.59-1.65Q198.64-0.75 197.21-0.28 195.79 0.2 194.24 0.2L194.24 0.2Q190.84 0.2 188.99-1.68 187.14-3.55 187.14-6.9L187.14-6.9 187.14-23.95 182.34-23.95 182.34-26.1 187.14-26.1 187.14-31.8 189.64-31.8 189.64-26.1 197.94-26.1 197.94-23.95 189.64-23.95 189.64-7.15Q189.64-4.6 190.86-3.28 192.09-1.95 194.49-1.95L194.49-1.95Q196.94-1.95 198.54-3.4L198.54-3.4ZM227.68-13.15L227.63-12.45 205.18-12.45Q205.28-9.4 206.73-7.03 208.18-4.65 210.66-3.35 213.13-2.05 216.23-2.05L216.23-2.05Q218.78-2.05 220.96-2.98 223.13-3.9 224.58-5.7L224.58-5.7 226.03-4.05Q224.33-2 221.76-0.9 219.18 0.2 216.18 0.2L216.18 0.2Q212.28 0.2 209.23-1.5 206.18-3.2 204.46-6.2 202.73-9.2 202.73-13.05L202.73-13.05Q202.73-16.85 204.36-19.88 205.98-22.9 208.83-24.6 211.68-26.3 215.23-26.3L215.23-26.3Q218.78-26.3 221.61-24.63 224.43-22.95 226.06-19.95 227.68-16.95 227.68-13.15L227.68-13.15ZM215.23-24.1Q212.48-24.1 210.28-22.88 208.08-21.65 206.76-19.43 205.43-17.2 205.23-14.4L205.23-14.4 225.23-14.4Q225.08-17.2 223.73-19.4 222.38-21.6 220.18-22.85 217.98-24.1 215.23-24.1L215.23-24.1ZM256.38-19.75Q262.18-19.6 265.2-16.93 268.23-14.25 268.23-9.85L268.23-9.85Q268.23-6.9 266.83-4.63 265.43-2.35 262.65-1.05 259.88 0.25 255.98 0.25L255.98 0.25Q252.18 0.25 248.83-1.03 245.48-2.3 243.63-4.45L243.63-4.45 244.93-6.4Q246.63-4.5 249.55-3.3 252.48-2.1 255.98-2.1L255.98-2.1Q260.63-2.1 263.13-4.17 265.63-6.25 265.63-9.85L265.63-9.85Q265.63-13.5 263.08-15.55 260.53-17.6 255.43-17.6L255.43-17.6 253.23-17.6 253.23-19.45 263.58-32.7 244.93-32.7 244.93-35 266.88-35 266.88-33.2 256.38-19.75ZM299.22 0.2Q295.52 0.2 292.55-1.5 289.57-3.2 287.87-6.23 286.17-9.25 286.17-13.05L286.17-13.05Q286.17-16.85 287.87-19.88 289.57-22.9 292.55-24.6 295.52-26.3 299.22-26.3L299.22-26.3Q302.92-26.3 305.9-24.6 308.87-22.9 310.57-19.88 312.27-16.85 312.27-13.05L312.27-13.05Q312.27-9.25 310.57-6.23 308.87-3.2 305.9-1.5 302.92 0.2 299.22 0.2L299.22 0.2ZM299.22-2.05Q302.22-2.05 304.6-3.45 306.97-4.85 308.35-7.35 309.72-9.85 309.72-13.05L309.72-13.05Q309.72-16.25 308.35-18.75 306.97-21.25 304.6-22.65 302.22-24.05 299.22-24.05L299.22-24.05Q296.22-24.05 293.85-22.65 291.47-21.25 290.1-18.75 288.72-16.25 288.72-13.05L288.72-13.05Q288.72-9.85 290.1-7.35 291.47-4.85 293.85-3.45 296.22-2.05 299.22-2.05L299.22-2.05ZM332.77-26.3Q337.67-26.3 340.52-23.45 343.37-20.6 343.37-15.25L343.37-15.25 343.37 0 340.87 0 340.87-15.05Q340.87-19.45 338.65-21.75 336.42-24.05 332.42-24.05L332.42-24.05Q327.82-24.05 325.17-21.3 322.52-18.55 322.52-13.9L322.52-13.9 322.52 0 320.02 0 320.02-26.1 322.42-26.1 322.42-20.45Q323.77-23.2 326.45-24.75 329.12-26.3 332.77-26.3L332.77-26.3ZM394.52 0L391.62 0 383.27-11.7Q381.42-11.45 379.87-11.45L379.87-11.45 369.87-11.45 369.87 0 367.32 0 367.32-35 379.87-35Q386.47-35 390.22-31.88 393.97-28.75 393.97-23.2L393.97-23.2Q393.97-19.05 391.84-16.23 389.72-13.4 385.77-12.25L385.77-12.25 394.52 0ZM369.87-13.7L379.87-13.7Q385.47-13.7 388.42-16.18 391.37-18.65 391.37-23.2L391.37-23.2Q391.37-27.75 388.42-30.23 385.47-32.7 379.87-32.7L379.87-32.7 369.87-32.7 369.87-13.7ZM411.06-26.3Q415.91-26.3 418.51-23.83 421.11-21.35 421.11-16.55L421.11-16.55 421.11 0 418.71 0 418.71-4.65Q417.46-2.35 415.06-1.07 412.66 0.2 409.31 0.2L409.31 0.2Q404.96 0.2 402.44-1.85 399.91-3.9 399.91-7.25L399.91-7.25Q399.91-10.5 402.24-12.53 404.56-14.55 409.66-14.55L409.66-14.55 418.61-14.55 418.61-16.65Q418.61-20.3 416.64-22.2 414.66-24.1 410.86-24.1L410.86-24.1Q408.26-24.1 405.89-23.2 403.51-22.3 401.86-20.8L401.86-20.8 400.61-22.6Q402.56-24.35 405.31-25.33 408.06-26.3 411.06-26.3L411.06-26.3ZM409.66-1.85Q412.91-1.85 415.19-3.35 417.46-4.85 418.61-7.7L418.61-7.7 418.61-12.6 409.71-12.6Q405.86-12.6 404.14-11.2 402.41-9.8 402.41-7.35L402.41-7.35Q402.41-4.8 404.31-3.33 406.21-1.85 409.66-1.85L409.66-1.85ZM431.41 0L431.41-26.1 433.91-26.1 433.91 0 431.41 0ZM432.66-32.45Q431.81-32.45 431.21-33.02 430.61-33.6 430.61-34.45L430.61-34.45Q430.61-35.3 431.21-35.9 431.81-36.5 432.66-36.5L432.66-36.5Q433.51-36.5 434.11-35.93 434.71-35.35 434.71-34.5L434.71-34.5Q434.71-33.65 434.11-33.05 433.51-32.45 432.66-32.45L432.66-32.45ZM444.46 0L444.46-37.1 446.96-37.1 446.96 0 444.46 0ZM464.11 0.2Q460.96 0.2 458.11-0.75 455.26-1.7 453.66-3.15L453.66-3.15 454.81-5.15Q456.41-3.8 458.93-2.9 461.46-2 464.21-2L464.21-2Q468.16-2 470.03-3.3 471.91-4.6 471.91-6.9L471.91-6.9Q471.91-8.55 470.88-9.5 469.86-10.45 468.36-10.9 466.86-11.35 464.21-11.85L464.21-11.85Q461.11-12.4 459.21-13.05 457.31-13.7 455.96-15.15 454.61-16.6 454.61-19.15L454.61-19.15Q454.61-22.25 457.18-24.28 459.76-26.3 464.51-26.3L464.51-26.3Q467.01-26.3 469.46-25.6 471.91-24.9 473.46-23.75L473.46-23.75 472.31-21.75Q470.71-22.9 468.66-23.5 466.61-24.1 464.46-24.1L464.46-24.1Q460.81-24.1 458.96-22.75 457.11-21.4 457.11-19.2L457.11-19.2Q457.11-17.45 458.16-16.48 459.21-15.5 460.73-15.03 462.26-14.55 465.01-14L465.01-14Q468.06-13.45 469.93-12.83 471.81-12.2 473.11-10.8 474.41-9.4 474.41-6.95L474.41-6.95Q474.41-3.7 471.71-1.75 469.01 0.2 464.11 0.2L464.11 0.2ZM505.7-20.7Q509.15-20.7 511.83-19.43 514.5-18.15 515.95-15.78 517.4-13.4 517.4-10.3L517.4-10.3Q517.4-7.15 515.9-4.75 514.4-2.35 511.75-1.05 509.1 0.25 505.75 0.25L505.75 0.25Q498.95 0.25 495.33-4.38 491.7-9 491.7-17.3L491.7-17.3Q491.7-23.1 493.63-27.13 495.55-31.15 499.05-33.2 502.55-35.25 507.25-35.25L507.25-35.25Q512.2-35.25 515.2-33.45L515.2-33.45 514.15-31.4Q511.65-33 507.25-33L507.25-33Q501.2-33 497.73-29.08 494.25-25.15 494.25-17.7L494.25-17.7Q494.25-15.4 494.55-13.5L494.55-13.5Q495.6-16.9 498.63-18.8 501.65-20.7 505.7-20.7L505.7-20.7ZM505.65-1.95Q509.75-1.95 512.3-4.23 514.85-6.5 514.85-10.25L514.85-10.25Q514.85-14 512.3-16.25 509.75-18.5 505.35-18.5L505.35-18.5Q502.55-18.5 500.33-17.4 498.1-16.3 496.88-14.4 495.65-12.5 495.65-10.15L495.65-10.15Q495.65-8.05 496.83-6.15 498-4.25 500.25-3.1 502.5-1.95 505.65-1.95L505.65-1.95Z"
                                 opacity="1"
                                 fill="#512da8"
                                 class="slogan-text-1"
                                 data-fill-palette-color="secondary"
                                 id="text-1"
                                 transform="matrix(1,0,0,1,0,0)"
                                 style="fill:#1a1a1a" />
                            </svg>
                          </g>
                        </svg>
                      </g>
                    </svg>
                  </g>
                </svg>
              </g>
              <g
                 transform="matrix(1,0,0,1,166.73667671378513,0)"
                 id="g51">
                <svg
                   viewBox="0 0 62.046646572429744 80.1861520050097"
                   height="80.1861520050097"
                   width="62.046646572429744"
                   version="1.1"
                   id="svg49">
                  <g
                     id="g47">
                    <svg
                       version="1.1"
                       x="0"
                       y="0"
                       viewBox="12.982999801635742 1 75.68599700927734 97.81300354003906"
                       enable-background="new 0 0 100 100"
                       xml:space="preserve"
                       height="80.1861520050097"
                       width="62.046646572429744"
                       class="icon-icon-0"
                       data-fill-palette-color="accent"
                       id="icon-0"><g
                         fill="#512da8"
                         data-fill-palette-color="accent"
                         id="g44"><polygon
                           fill-rule="evenodd"
                           clip-rule="evenodd"
                           points="12.983,10.59 30.001,98.813 24.129,39.764 53.15,37.872 53.096,27.989    64.549,1 53.622,18.977  "
                           fill="#512da8"
                           data-fill-palette-color="accent"
                           id="polygon32"
                           style="fill:#1a1a1a" /><polygon
                           fill-rule="evenodd"
                           clip-rule="evenodd"
                           points="59.389,54.548 64.549,1.007 55.809,40.723 36.197,41.768 37.767,62.23    30.001,98.813 42.058,58.914  "
                           fill="#512da8"
                           data-fill-palette-color="accent"
                           id="polygon34"
                           style="fill:#1a1a1a" /><polygon
                           fill-rule="evenodd"
                           clip-rule="evenodd"
                           points="62.8,67.182 63.349,56.729 47.37,60.484 47.338,72.281 30.001,98.813    51.681,71.197  "
                           fill="#512da8"
                           data-fill-palette-color="accent"
                           id="polygon36"
                           style="fill:#1a1a1a" /><polygon
                           fill-rule="evenodd"
                           clip-rule="evenodd"
                           points="65.711,62.394 80.552,57.663 82.061,45.131 66.162,47.226  "
                           fill="#512da8"
                           data-fill-palette-color="accent"
                           id="polygon38"
                           style="fill:#1a1a1a" /><polygon
                           fill-rule="evenodd"
                           clip-rule="evenodd"
                           points="72.07,44.502 83.058,43.085 84.639,32.807 76.56,32.434 64.549,1    72.979,31.967  "
                           fill="#512da8"
                           data-fill-palette-color="accent"
                           id="polygon40"
                           style="fill:#1a1a1a" /><polygon
                           fill-rule="evenodd"
                           clip-rule="evenodd"
                           points="87.413,31.294 88.669,21.788 79.125,19.094 64.549,1 79.032,23.437    78.61,30.437  "
                           fill="#512da8"
                           data-fill-palette-color="accent"
                           id="polygon42"
                           style="fill:#1a1a1a" /></g></svg>
                  </g>
                </svg>
              </g>
              <g
                 id="g53" />
            </svg>
          </g>
          <defs
             id="defs59" />
        </svg>
        <rect
           width="395.52"
           height="145.9181688231134"
           fill="none"
           stroke="none"
           visibility="hidden"
           id="rect63" />
      </g>
    </svg>
  </g>
</svg>
